<svg width="16" height="16" viewBox="0 0 16 16" fill="none" xmlns="http://www.w3.org/2000/svg">
<path d="M15 15.95H11.6404C11.3476 15.95 11.1328 15.6749 11.2038 15.3909L14.9804 0.28452C15.0149 0.146691 15.1387 0.05 15.2808 0.05C15.6504 0.05 15.95 0.349622 15.95 0.719224V15C15.95 15.5247 15.5247 15.95 15 15.95Z" fill="#323232" stroke="black" stroke-width="0.1"/>
<path d="M12.7962 0.609141L9.04618 15.6091C8.99609 15.8095 8.8161 15.95 8.60961 15.95H6.66002C6.36183 15.95 6.1461 15.6652 6.22683 15.3782L10.4456 0.378165C10.5002 0.184089 10.6772 0.05 10.8788 0.05H12.3596C12.6524 0.05 12.8672 0.325125 12.7962 0.609141Z" fill="#323232" stroke="black" stroke-width="0.1"/>
<path d="M1 0.05H7.80629C8.11344 0.05 8.33032 0.350914 8.2332 0.642303L7.56653 2.6423C7.50528 2.82606 7.33331 2.95 7.13962 2.95H0.5C0.251472 2.95 0.05 2.74853 0.05 2.5V1C0.05 0.475329 0.47533 0.05 1 0.05Z" fill="#323232" stroke="black" stroke-width="0.1"/>
<path d="M0.5 5.05H6.30629C6.61344 5.05 6.83032 5.35091 6.73319 5.6423L6.06653 7.6423C6.00528 7.82606 5.83331 7.95 5.63962 7.95H0.5C0.251472 7.95 0.05 7.74853 0.05 7.5V5.5C0.05 5.25147 0.251472 5.05 0.5 5.05Z" fill="#323232" stroke="black" stroke-width="0.1"/>
<path d="M0.5 10.05H4.80629C5.11344 10.05 5.33032 10.3509 5.23319 10.6423L3.56653 15.6423C3.50528 15.8261 3.33331 15.95 3.13962 15.95H1C0.475329 15.95 0.05 15.5247 0.05 15V10.5C0.05 10.2515 0.251472 10.05 0.5 10.05Z" fill="#323232" stroke="black" stroke-width="0.1"/>
</svg>
