<svg viewBox="0 0 16 16" xmlns="http://www.w3.org/2000/svg" fill="context-fill #bababa" fill-opacity="context-fill-opacity"><path d="M1 3c0-.86 1-2 2-2h3.84a.5.5 0 01.48.64l-.57 2a.5.5 0 01-.48.36H1.5a.5.5 0 01-.5-.5V3zM5.4 6a.5.5 0 01.49.64l-.57 2a.5.5 0 01-.48.36H1.5a.5.5 0 01-.5-.5v-2c0-.28.22-.5.5-.5h3.9zM4.46 11.64a.5.5 0 00-.48-.64H1.5a.5.5 0 00-.5.5V13c0 .86 1 2 2 2h.12a.5.5 0 00.48-.36l.86-3zM8.6 14.64l3.72-13a.5.5 0 00-.48-.64h-1.46a.5.5 0 00-.48.36l-3.72 13a.5.5 0 00.48.64h1.46a.5.5 0 00.48-.36zM15 13V4.57c0-.58-.82-.7-.98-.14l-2.84 9.93a.5.5 0 00.48.64H13c1 0 2-1 2-2z"/></svg>