<svg width="16" height="16" viewBox="0 0 16 16" fill="none" xmlns="http://www.w3.org/2000/svg">
<path d="M1 2C1 1.44772 1.44772 1 2 1H6.83713C7.16932 1 7.40916 1.31795 7.3179 1.63736L6.74647 3.63736C6.68514 3.85201 6.48895 4 6.26571 4H1.5C1.22386 4 1 3.77614 1 3.5V2Z" fill="url(#paint0_linear)"/>
<path d="M5.40856 6C5.74075 6 5.98059 6.31795 5.88933 6.63736L5.3179 8.63736C5.25657 8.85201 5.06038 9 4.83714 9H1.5C1.22386 9 1 8.77614 1 8.5V6.5C1 6.22386 1.22386 6 1.5 6H5.40856Z" fill="url(#paint1_linear)"/>
<path d="M4.46075 11.6374C4.55201 11.318 4.31218 11 3.97999 11H1.5C1.22386 11 1 11.2239 1 11.5V14C1 14.5523 1.44772 15 2 15H3.12285C3.34609 15 3.54228 14.852 3.60361 14.6374L4.46075 11.6374Z" fill="url(#paint2_linear)"/>
<path d="M8.60361 14.6374L12.3179 1.63736C12.4092 1.31795 12.1693 1 11.8371 1H10.3772C10.1539 1 9.95772 1.14799 9.89639 1.36264L6.1821 14.3626C6.09084 14.682 6.33068 15 6.66286 15H8.12285C8.34609 15 8.54228 14.852 8.60361 14.6374Z" fill="url(#paint3_linear)"/>
<path d="M15 14V4.57003C15 3.99022 14.1785 3.87517 14.0192 4.43267L11.1821 14.3626C11.0908 14.682 11.3307 15 11.6629 15H14C14.5523 15 15 14.5523 15 14Z" fill="url(#paint4_linear)"/>
<defs>
<linearGradient id="paint0_linear" x1="12" y1="3.19309e-09" x2="7.5" y2="16" gradientUnits="userSpaceOnUse">
<stop stop-color="#CCCCCC"/>
<stop offset="1" stop-color="#B0B0B0"/>
</linearGradient>
<linearGradient id="paint1_linear" x1="12" y1="3.19309e-09" x2="7.5" y2="16" gradientUnits="userSpaceOnUse">
<stop stop-color="#CCCCCC"/>
<stop offset="1" stop-color="#B0B0B0"/>
</linearGradient>
<linearGradient id="paint2_linear" x1="12" y1="3.19309e-09" x2="7.5" y2="16" gradientUnits="userSpaceOnUse">
<stop stop-color="#CCCCCC"/>
<stop offset="1" stop-color="#B0B0B0"/>
</linearGradient>
<linearGradient id="paint3_linear" x1="12" y1="3.19309e-09" x2="7.5" y2="16" gradientUnits="userSpaceOnUse">
<stop stop-color="#CCCCCC"/>
<stop offset="1" stop-color="#B0B0B0"/>
</linearGradient>
<linearGradient id="paint4_linear" x1="12" y1="3.19309e-09" x2="7.5" y2="16" gradientUnits="userSpaceOnUse">
<stop stop-color="#CCCCCC"/>
<stop offset="1" stop-color="#B0B0B0"/>
</linearGradient>
</defs>
</svg>
