<svg id="icon_calendar" viewBox="0 0 16 16" xmlns="http://www.w3.org/2000/svg"><path d="M4 1h1v2H4V1zM12 3h1a2 2 0 012 2H1c0-1.1.9-2 2-2h1v1h1V3h6v1h1V3zM12 3V1h-1v2h1z"/><path fill-rule="evenodd" clip-rule="evenodd" d="M15 6H1v7c0 1.1.9 2 2 2h10a2 2 0 002-2V6zM4.5 8c-.3 0-.5.2-.5.5v1c0 .3.2.5.5.5h1c.3 0 .5-.2.5-.5v-1c0-.3-.2-.5-.5-.5h-1zm0 3c-.3 0-.5.2-.5.5v1c0 .3.2.5.5.5h1c.3 0 .5-.2.5-.5v-1c0-.3-.2-.5-.5-.5h-1zM7 8.5c0-.3.2-.5.5-.5h1c.3 0 .5.2.5.5v1c0 .3-.2.5-.5.5h-1a.5.5 0 01-.5-.5v-1zm.5 2.5c-.3 0-.5.2-.5.5v1c0 .3.2.5.5.5h1c.3 0 .5-.2.5-.5v-1c0-.3-.2-.5-.5-.5h-1zM10 8.5c0-.3.2-.5.5-.5h1c.3 0 .5.2.5.5v1c0 .3-.2.5-.5.5h-1a.5.5 0 01-.5-.5v-1zm.5 2.5c-.3 0-.5.2-.5.5v1c0 .3.2.5.5.5h1c.3 0 .5-.2.5-.5v-1c0-.3-.2-.5-.5-.5h-1z"/></svg>