<svg id="icon_code" viewBox="0 0 16 16" xmlns="http://www.w3.org/2000/svg"><path fill-rule="evenodd" clip-rule="evenodd" d="M6.01 14.39a.5.5 0 01-.37-.6L8.4 1.76a.5.5 0 01.6-.37l.98.22a.5.5 0 01.37.6L7.6 14.24a.5.5 0 01-.6.37L6 14.4zM2.98 8.3a.5.5 0 010-.6L5 5a.5.5 0 00-.1-.7l-.8-.6a.5.5 0 00-.7.1L.48 7.7a.5.5 0 000 .6l2.92 3.9a.5.5 0 00.7.1l.8-.6A.5.5 0 005 11L2.98 8.3zm8.92-4.6a.5.5 0 01.7.1l2.93 3.9a.5.5 0 010 .6l-2.93 3.9a.5.5 0 01-.7.1l-.8-.6a.5.5 0 01-.1-.7l2.03-2.7a.5.5 0 000-.6L11 5a.5.5 0 01.1-.7l.8-.6z"/></svg>