<svg id="icon_cookie" viewBox="0 0 16 16" xmlns="http://www.w3.org/2000/svg"><path d="M7.62 7.61c-.93-.19-.65-1.07-.2-1.61.22.1.47.09.7.17.33.12.26.56.26.83 0 .23.05.48-.2.59-.16.06-.4.05-.56.02zM9.38 4.21c-.53-.27-.37-1.27-.32-1.7 0-.84.87-.45 1.33-.2.63.34.16 1.26-.14 1.63-.18.22-.58.42-.87.27z"/><path fill-rule="evenodd" clip-rule="evenodd" d="M14.3 12.26c.43-.54.75-.96.96-1.71.22-.82.26-1.64.14-2.43-.14-.85-.83-1.88-1.31-2.59l-.05-.06c-.13.01-.26.05-.41.12-.24.1-.53.28-.64.53a4.7 4.7 0 0 0-.04.09c-.07.15-.15.32-.29.4l-.42.31-.31.24-.1.06c-.07.04-.13.08-.18.13a.71.71 0 0 1-.14.08l-.12.08-.17.14c-.13.12-.26.24-.42.3a14.15 14.15 0 0 1-.72.28c-.33.11-.44.34-.57.63-.1.25-.26.47-.42.7l-.11.15c-.07.1-.1.22-.15.34-.03.13-.07.25-.16.37-.06.08-.1.18-.13.28-.04.1-.07.2-.13.28-.08.1-.25.2-.4.27l-.16.08c-.13.08-.19.18-.25.29-.04.07-.07.13-.13.2l-.01.02c-.08.09-.17.19-.27.26-.08.06-.15.1-.17.2-.02.06 0 .12.01.17v.01c.03.1 0 .2-.02.29L7 12.8c-.05.14-.2.3-.3.4a.8.8 0 0 0-.05.06l-.1.08-.07.05-.1.07a.26.26 0 0 1-.1.05c-.04 0-.06.01-.09.03a.37.37 0 0 0-.1.08c.52.38 1.18.68 2.09.93.73.2 1.77.34 2.48.26a5.8 5.8 0 0 0 2.31-1.06c.16-.1.36-.3.53-.47l.2-.18c.22-.33.42-.6.6-.84zm-.92-2.05c-.48-.24-.39-1.11-.34-1.59l.02-.11c0-.84.87-.45 1.33-.2.63.34.16 1.26-.14 1.63-.18.22-.58.42-.87.27zm-3.31 1.48c-.33 1.11.58 1.45 1.45.85.28-.2.64-.47.51-.86-.08-.25-.52-.46-.75-.55-.37-.15-.52-.2-.86 0-.16.1-.35.38-.35.56z"/><path d="M10.52 6.54c-.87.6-1.78.26-1.45-.85 0-.18.19-.47.35-.56.34-.2.49-.15.86 0 .23.09.67.3.75.55.13.4-.23.67-.51.86zM12.52 3.54c-.87.6-1.78.26-1.45-.85 0-.18.19-.47.35-.56.34-.2.49-.15.86 0 .23.09.67.3.75.55.13.4-.23.67-.51.86z"/><path fill-rule="evenodd" clip-rule="evenodd" d="M3.01 11.32c.51.36 1 .63 1.52.8.08-.13.18-.25.27-.36.1-.1.18-.21.25-.32.12-.18.05-.26-.04-.37l-.1-.12c-.12-.2-.06-.43 0-.65l.04-.17c.09-.44.29-.84.49-1.24.05-.1.1-.19.13-.28.12-.23.1-.35.02-.58-.09-.27-.14-.55-.03-.82.11-.27.08-.6.06-.9l-.02-.24c-.02-.3.17-.58.36-.84l.2-.3.13-.28.08-.18.1-.25c.04-.13.09-.26.17-.37l.09-.12c.12-.18.25-.36.4-.51.1-.11.23-.26.27-.41.04-.16.06-.31.08-.47.02-.15.03-.3.07-.46.04-.13.14-.25.24-.37l.14-.18c.07-.12.17-.22.28-.32A3.38 3.38 0 0 0 5.5.6c-.72.15-2.2.62-2.78 1a.82.82 0 0 0-.39.5c-.05.14-.1.3-.26.48l-.2.23c-.4.42-.9.98-1.1 1.74a4.43 4.43 0 0 0 .28 4.18l.23.4c.08.16.16.37.24.58.14.36.29.74.5.97.2.22.38.32.59.42.12.06.25.13.4.23zm1-8.66c-.02.4-.06.83.3 1.09.27.2.77.42 1.09.2.57-.37.84-1.2.29-1.71-.14-.12-.35-.27-.54-.24-.15.03-.22.15-.29.25-.04.08-.08.15-.15.17-.17.05-.53.02-.67-.05l-.02.29zM2.39 7.2c-.48-.24-.39-1.11-.34-1.59l.02-.11c0-.84.87-.45 1.33-.2.63.34.16 1.26-.14 1.63-.18.22-.58.42-.87.27zM3 9.45c-.01.3.03.92.4 1.02.24.07.6-.15.78-.28.42-.3.18-.86-.18-1.06-.2-.12-.57-.19-.78-.07-.07.03-.13.18-.17.3L3 9.44z"/></svg>