<svg id="icon_default_container" width="16" height="16" xmlns="http://www.w3.org/2000/svg"><path d="M2.5 1A1.5 1.5 0 0 0 1 2.5v3A1.5 1.5 0 0 0 2.5 7h3A1.5 1.5 0 0 0 7 5.5v-3A1.5 1.5 0 0 0 5.5 1h-3ZM10.5 1A1.5 1.5 0 0 0 9 2.5v3A1.5 1.5 0 0 0 10.5 7h3A1.5 1.5 0 0 0 15 5.5v-3A1.5 1.5 0 0 0 13.5 1h-3ZM9 10.5A1.5 1.5 0 0 1 10.5 9h3a1.5 1.5 0 0 1 1.5 1.5v3a1.5 1.5 0 0 1-1.5 1.5h-3A1.5 1.5 0 0 1 9 13.5v-3ZM2.5 9A1.5 1.5 0 0 0 1 10.5v3A1.5 1.5 0 0 0 2.5 15h3A1.5 1.5 0 0 0 7 13.5v-3A1.5 1.5 0 0 0 5.5 9h-3Z"/></svg>