<svg id="icon_jpg" xmlns="http://www.w3.org/2000/svg"><path d="M3.68 5.5v5.6c0 .25-.03.5-.1.73a1.5 1.5 0 0 1-.92 1.02c-.25.1-.56.15-.92.15-.14 0-.26 0-.38-.03A2.8 2.8 0 0 1 1 12.9l.05-.87c.01-.08.04-.13.08-.17.04-.04.13-.05.25-.05.13 0 .24-.01.32-.04a.37.37 0 0 0 .2-.1.44.44 0 0 0 .1-.23c.01-.09.03-.2.03-.35V5.51h1.65zm.17-1.52a.9.9 0 0 1-.08.37 1.03 1.03 0 0 1-1.31.52 1.18 1.18 0 0 1-.32-.2c-.09-.1-.16-.2-.21-.32a.97.97 0 0 1 .21-1.07c.1-.08.2-.15.32-.2a1 1 0 0 1 1.1.21.92.92 0 0 1 .3.7zM6.49 9.56a1.1 1.1 0 0 0 .86.38c.16 0 .3-.03.43-.1a.85.85 0 0 0 .33-.28c.1-.14.17-.31.22-.53a3.64 3.64 0 0 0 .02-1.53c-.05-.2-.1-.36-.18-.48a.68.68 0 0 0-.63-.35c-.25 0-.45.05-.6.14-.16.09-.3.22-.45.39v2.36zm-.1-3.37c.22-.23.46-.42.73-.57a2.04 2.04 0 0 1 1.8-.03c.24.13.45.32.63.56.18.24.32.54.42.9a4.26 4.26 0 0 1-.03 2.36c-.11.35-.27.66-.48.92a2.08 2.08 0 0 1-1.7.83c-.3 0-.54-.03-.74-.12-.2-.08-.37-.19-.53-.33v2.14H4.83V5.51h1.03c.2 0 .34.09.4.27l.13.41zM13.09 8c.27 0 .47-.07.59-.2a.78.78 0 0 0 .18-.54c0-.23-.06-.4-.18-.53s-.32-.2-.6-.2c-.27 0-.47.07-.6.2a.75.75 0 0 0-.17.53c0 .1.01.2.04.3.03.08.08.16.14.23.07.06.15.12.24.16.1.03.22.05.36.05zm1.28 3.28a.3.3 0 0 0-.18-.28 1.4 1.4 0 0 0-.46-.13c-.19-.02-.4-.04-.63-.04-.24 0-.47-.02-.7-.05-.1.08-.19.16-.25.25a.48.48 0 0 0-.1.3c0 .07.02.14.05.2.03.07.1.13.18.17.08.05.2.09.34.11a3.29 3.29 0 0 0 1.14 0c.15-.03.27-.07.36-.12a.44.44 0 0 0 .25-.4zM16 5.68v.6a.3.3 0 0 1-.08.23.51.51 0 0 1-.26.12l-.4.09a1.8 1.8 0 0 1 .07.5 1.7 1.7 0 0 1-.65 1.32c-.2.16-.44.28-.71.36a3.04 3.04 0 0 1-1.38.09c-.12.07-.18.16-.18.25 0 .1.05.16.15.2.1.05.23.07.4.1l.55.02a7.86 7.86 0 0 1 1.28.14c.2.05.4.12.56.22a1.17 1.17 0 0 1 .54 1.09c0 .25-.06.5-.18.73-.12.24-.3.46-.53.64-.24.19-.53.34-.87.45a4.5 4.5 0 0 1-2.3.05 2.7 2.7 0 0 1-.78-.33c-.2-.13-.36-.29-.46-.46a1.1 1.1 0 0 1-.15-.55c0-.25.07-.46.21-.62.14-.17.34-.3.6-.4a.94.94 0 0 1-.32-.32.95.95 0 0 1-.08-.75c.03-.1.08-.19.14-.27a1.42 1.42 0 0 1 .56-.46 1.85 1.85 0 0 1-.68-.61 1.58 1.58 0 0 1-.25-.89 1.68 1.68 0 0 1 .66-1.32c.2-.16.45-.28.72-.36a3.03 3.03 0 0 1 2.15.14H16z"/></svg>