<svg id="icon_pdf" xmlns="http://www.w3.org/2000/svg"><path d="M1.7 9.65a1.12 1.12 0 0 0 .88.39 1 1 0 0 0 .43-.1.87.87 0 0 0 .34-.3c.1-.13.17-.3.23-.53.05-.22.08-.48.08-.8 0-.3-.02-.55-.07-.75-.04-.2-.1-.37-.18-.5a.69.69 0 0 0-.65-.35c-.24 0-.45.04-.6.13-.17.1-.32.23-.47.4v2.41zm-.11-3.43c.22-.24.47-.43.75-.58a2.1 2.1 0 0 1 1.83-.03c.25.13.47.32.65.57.19.24.33.55.43.91a4.32 4.32 0 0 1-.02 2.4 2.9 2.9 0 0 1-.5.95 2.14 2.14 0 0 1-1.75.85c-.3 0-.54-.05-.74-.13-.2-.08-.38-.2-.55-.34V13H0V5.52h1.05c.21 0 .35.1.41.28l.13.42zM9.72 7.04a1.04 1.04 0 0 0-.41-.3c-.15-.05-.31-.08-.47-.08a.9.9 0 0 0-.78.4c-.1.13-.17.3-.22.52a3.69 3.69 0 0 0-.02 1.55c.04.2.1.37.18.5.08.13.17.22.28.27.11.06.24.08.37.08.12 0 .23 0 .33-.03a1.26 1.26 0 0 0 .52-.27l.22-.23v-2.4zM11.42 3v8.2h-1.05c-.22 0-.35-.1-.42-.29l-.13-.43a3.32 3.32 0 0 1-.76.59 2.24 2.24 0 0 1-1 .22c-.3 0-.57-.07-.82-.2a1.89 1.89 0 0 1-.65-.57 2.92 2.92 0 0 1-.43-.91 4.54 4.54 0 0 1 .02-2.41c.12-.36.28-.68.5-.94a2.18 2.18 0 0 1 1.76-.85c.29 0 .53.04.73.13.2.08.39.2.55.34V3h1.7zM12.98 11.2V6.69l-.37-.08a.8.8 0 0 1-.31-.14c-.08-.06-.12-.15-.12-.27v-.67h.8v-.32c0-.33.05-.62.15-.88a1.91 1.91 0 0 1 1.17-1.11 2.78 2.78 0 0 1 1.7-.05l-.03.83a.3.3 0 0 1-.05.14.32.32 0 0 1-.1.1.63.63 0 0 1-.27.07c-.15 0-.29 0-.4.04a.64.64 0 0 0-.3.16.7.7 0 0 0-.17.3c-.04.11-.06.27-.06.45v.27h1.33v1.16h-1.28v4.5h-1.7z"/></svg>