<svg id="icon_vid" viewBox="0 0 16 16" xmlns="http://www.w3.org/2000/svg"><path d="M10.39 9.19l-2.8-2.03a1 1 0 00-1.59.8v4.08a1 1 0 001.59.81l2.8-2.04a1 1 0 000-1.62z"/><path fill-rule="evenodd" clip-rule="evenodd" d="M15 2.5c0-.83-.67-1.5-1.5-1.5h-11C1.67 1 1 1.67 1 2.5v11c0 .83.67 1.5 1.5 1.5h11c.83 0 1.5-.67 1.5-1.5v-11zM2.3 6.3A1 1 0 013 6h10a1 1 0 011 1v6a1 1 0 01-1 1H3a1 1 0 01-1-1V7a1 1 0 01.3-.7zM2.47 2h2l1 1.5-1 1.5h-2l1-1.5-1-1.5zM7.5 3.5L6.5 2h2l1 1.5-1 1.5h-2l1-1.5zM10.49 2h2.02l1 1.5-1 1.5h-2.02l1-1.5-1-1.5z"/></svg>