<svg id="icon_pref" xmlns="http://www.w3.org/2000/svg" width="16" height="16"><path d="M15 7h-2.1a4.97 4.97 0 0 0-.73-1.75l1.49-1.5a1 1 0 0 0-1.42-1.4l-1.49 1.48A4.97 4.97 0 0 0 9 3.1V1a1 1 0 0 0-2 0v2.1a4.97 4.97 0 0 0-1.75.73l-1.5-1.49a1 1 0 0 0-1.4 1.42l1.48 1.49A4.97 4.97 0 0 0 3.1 7H1a1 1 0 0 0 0 2h2.1a4.97 4.97 0 0 0 .74 1.76l-.05.03-1.45 1.45a1 1 0 1 0 1.42 1.42L5.2 12.2c0-.02.01-.03.03-.05A4.97 4.97 0 0 0 7 12.9V15a1 1 0 0 0 2 0v-2.1a4.97 4.97 0 0 0 1.75-.73l1.5 1.49a1 1 0 0 0 1.4-1.42l-1.48-1.49A4.97 4.97 0 0 0 12.9 9H15a1 1 0 0 0 0-2zM5 8a3 3 0 1 1 3 3 3 3 0 0 1-3-3z"/></svg>