<svg id="icon_music" viewBox="0 0 16 16" xmlns="http://www.w3.org/2000/svg"><path d="M12 3h-.01.01zM11.99 3v7.5c0 .69-.86 1.25-1.93 1.25-1.06 0-1.93-.56-1.93-1.25S9 9.25 10.06 9.25c.23 0 .44.03.64.07V6L6.86 7.5v4.25c0 .69-.87 1.25-1.93 1.25C3.86 13 3 12.44 3 11.75s.86-1.25 1.93-1.25c.22 0 .44.03.64.07V5.5L11.99 3z"/><path fill-rule="evenodd" clip-rule="evenodd" d="M1 2.5C1 1.67 1.67 1 2.5 1h11c.83 0 1.5.67 1.5 1.5v11c0 .83-.67 1.5-1.5 1.5h-11A1.5 1.5 0 011 13.5v-11zM13 2a1 1 0 011 1v10a1 1 0 01-1 1H3a1 1 0 01-1-1V3a1 1 0 011-1h10z"/></svg>