<svg id="icon_link_favicon" viewBox="0 0 16 16" xmlns="http://www.w3.org/2000/svg"><path d="M4.12 2.07C3 2.73 2.67 4.34 2.85 4.64l2.57 4.51c.17.3 1.74.87 2.86.22.19-.11.35-.23.48-.36l.8 1.4-.5.33c-1.99 1.16-4.31.85-5.19-.69L1.34 5.6c-.88-1.54.02-3.73 2-4.9 2-1.16 4.31-.85 5.19.69l.75 1.31-1.8.45-.5-.86c-.17-.3-1.73-.87-2.86-.22Z"/><path d="M8.04 13.76c.18.3 1.71.82 2.84.17 1.12-.66 1.45-2.27 1.27-2.57L9.58 6.85c-.17-.3-1.74-.87-2.86-.22-.19.11-.35.23-.48.36l-.8-1.4.5-.33c1.99-1.16 4.31-.85 5.19.69l2.53 4.45c.88 1.54-.02 3.73-2 4.9-2 1.16-4.31.85-5.19-.69l-.75-1.31 1.83-.4.5.86Z"/></svg>