<svg id="icon_pref" xmlns="http://www.w3.org/2000/svg" viewBox="0 0 16 16"><path d="M8.63 16H7.38a1.63 1.63 0 0 1-1.56-1.18l-.41-1.41a5.94 5.94 0 0 1-.78-.47l-1.45.36a1.63 1.63 0 0 1-1.8-.76l-.62-1.08a1.63 1.63 0 0 1 .23-1.94l1.04-1.1A3.28 3.28 0 0 1 2 8l.03-.45L1 6.48a1.63 1.63 0 0 1-.24-1.94l.63-1.08a1.64 1.64 0 0 1 1.78-.77l1.48.35c.26-.18.51-.33.76-.45l.4-1.41A1.63 1.63 0 0 1 7.39 0h1.25c.71 0 1.35.48 1.56 1.16l.42 1.44c.24.12.49.27.74.44l1.48-.35a1.64 1.64 0 0 1 1.79.77l.62 1.08c.36.62.26 1.42-.24 1.94l-1.03 1.07a3.7 3.7 0 0 1 0 .87L15 9.52c.5.52.59 1.32.23 1.94l-.62 1.08a1.63 1.63 0 0 1-1.8.76l-1.45-.36a6 6 0 0 1-.76.46l-.42 1.44A1.64 1.64 0 0 1 8.63 16zM4.6 11.66l.53.1a4.72 4.72 0 0 0 1.03.62l.36.4.49 1.7c.04.16.19.27.36.27h1.25a.37.37 0 0 0 .36-.27l.5-1.7.36-.4c.32-.14.64-.34 1-.61l.54-.11 1.73.43a.38.38 0 0 0 .41-.18l.63-1.08a.38.38 0 0 0-.06-.45l-1.25-1.31-.16-.5.02-.18c.02-.13.04-.26.04-.39 0-.15-.02-.3-.04-.44l-.02-.15.17-.51 1.24-1.29a.38.38 0 0 0 .06-.45l-.63-1.08a.38.38 0 0 0-.41-.18l-1.76.43-.52-.11a4.7 4.7 0 0 0-.99-.6l-.36-.4-.5-1.7a.37.37 0 0 0-.36-.27H7.38a.38.38 0 0 0-.36.27l-.49 1.7-.36.4a4.71 4.71 0 0 0-1.01.6l-.52.1-1.76-.42a.38.38 0 0 0-.41.18l-.63 1.08a.38.38 0 0 0 .06.45L3.14 6.9l.17.51-.02.15a2.98 2.98 0 0 0-.04.44c0 .13.02.26.04.39l.02.17-.17.5-1.25 1.32a.38.38 0 0 0-.05.45l.62 1.08a.38.38 0 0 0 .42.18l1.73-.43z"/><path d="M8 6.25a1.75 1.75 0 1 1 0 3.5 1.75 1.75 0 0 1 0-3.5M8 5a3 3 0 1 0 0 6 3 3 0 0 0 0-6z"/></svg>