<svg id="icon_png" xmlns="http://www.w3.org/2000/svg"><path d="M1.53 9.84a1.02 1.02 0 0 0 .8.34.9.9 0 0 0 .4-.08.79.79 0 0 0 .3-.27c.1-.12.16-.29.21-.48a3.33 3.33 0 0 0 .01-1.4c-.03-.2-.09-.34-.16-.45a.62.62 0 0 0-.59-.33c-.22 0-.4.04-.55.13-.14.08-.28.2-.42.36v2.18zm-.09-3.1c.2-.22.43-.4.68-.53a1.9 1.9 0 0 1 1.66-.03c.23.12.43.29.6.51.16.23.28.5.38.83a3.9 3.9 0 0 1-.02 2.17c-.1.33-.26.61-.45.85-.2.25-.43.43-.7.57-.26.13-.56.2-.89.2-.26 0-.49-.04-.67-.11a1.83 1.83 0 0 1-.5-.3v1.96H0V6.1h.95c.2 0 .32.08.38.26l.11.37zM7.11 6.65l.3-.25a1.73 1.73 0 0 1 .74-.33 2.03 2.03 0 0 1 1.2.1c.22.1.4.23.55.4.15.18.26.38.33.62.08.24.12.5.12.78v3.26H8.8V7.97a.89.89 0 0 0-.17-.58c-.12-.15-.28-.22-.5-.22-.18 0-.34.04-.48.11-.15.07-.3.17-.43.29v3.66H5.69V6.1h.96c.19 0 .31.08.37.26l.1.3zM13.3 8.4c.25 0 .43-.07.55-.2.11-.12.17-.29.17-.49s-.06-.37-.17-.49c-.12-.12-.3-.18-.55-.18-.26 0-.44.06-.56.18a.69.69 0 0 0-.17.5c0 .1.02.18.04.27.03.08.08.15.14.21.06.06.13.11.22.15.1.03.2.05.33.05zm1.19 3.02a.27.27 0 0 0-.17-.26c-.1-.06-.25-.1-.42-.12a5.13 5.13 0 0 0-.6-.04c-.2 0-.42-.02-.64-.04-.1.07-.17.14-.23.22a.44.44 0 0 0-.1.28c0 .07.02.13.05.2a.4.4 0 0 0 .17.15c.08.04.18.07.32.1a3.07 3.07 0 0 0 1.05 0c.14-.03.25-.07.34-.11a.4.4 0 0 0 .23-.38zM16 6.26v.56c0 .08-.02.15-.07.2a.47.47 0 0 1-.25.11l-.37.09a1.66 1.66 0 0 1 .07.46 1.56 1.56 0 0 1-.6 1.22c-.2.14-.41.25-.67.33a2.84 2.84 0 0 1-1.27.08c-.11.07-.17.14-.17.23s.05.15.14.19c.1.03.22.06.37.08l.51.03a7.34 7.34 0 0 1 1.19.12c.2.04.36.11.52.2a1.08 1.08 0 0 1 .5 1c0 .23-.06.46-.17.68-.11.22-.27.42-.5.6-.21.16-.48.3-.8.4a4.21 4.21 0 0 1-2.13.04 2.52 2.52 0 0 1-.73-.3c-.19-.12-.33-.26-.42-.42a1 1 0 0 1-.14-.5c0-.23.07-.42.2-.58.13-.15.31-.27.55-.36a.87.87 0 0 1-.3-.3.87.87 0 0 1-.06-.7.87.87 0 0 1 .12-.24 1.3 1.3 0 0 1 .52-.43 1.71 1.71 0 0 1-.63-.55c-.15-.24-.23-.51-.23-.82 0-.26.05-.49.16-.7.11-.2.26-.38.45-.52s.41-.26.67-.33a2.83 2.83 0 0 1 2 .13H16z"/></svg>