<svg id="icon_addons" xmlns="http://www.w3.org/2000/svg" viewBox="0 0 16 16"><path d="M13.38 16H3.62A1.63 1.63 0 0 1 2 14.37V11.5a.75.75 0 0 1 .75-.75H4.5a1.25 1.25 0 0 0 0-2.5H2.75A.75.75 0 0 1 2 7.5V5.62C2 4.72 2.73 4 3.63 4H6V2.65C6 1.35 6.94.15 8.24 0A2.5 2.5 0 0 1 11 2.5V4h2.38c.9 0 1.62.73 1.62 1.63v8.75c0 .9-.73 1.62-1.63 1.62zM3.24 12v2.15l.6.6h9.3l.6-.6v-8.3l-.6-.6H10.5a.75.75 0 0 1-.75-.75v-2a1.25 1.25 0 0 0-2.5 0v2a.75.75 0 0 1-.75.75H3.75l-.5.6V7h1.1c1.31 0 2.5.94 2.64 2.24A2.5 2.5 0 0 1 4.5 12H3.25z"/></svg>