<svg id="fingerprint" viewBox="0 0 32 32" xmlns="http://www.w3.org/2000/svg"><path d="M7.18 12l-.2-.01c-.65-.1-1.07-.6-.96-1.13 1.4-6.6 6.24-8.29 9-8.7 4.62-.7 9.32 1.06 10.81 3.14.34.46.15 1.06-.4 1.33-.56.28-1.29.13-1.62-.34-.92-1.28-4.64-2.78-8.36-2.22-2.64.4-6.02 1.97-7.11 7.12-.1.48-.6.81-1.16.81zm9.45 14c-.48 0-.98-.03-1.48-.1-4.51-.64-8.44-4.09-9.13-8.02-.1-.59.31-1.14.94-1.24.62-.1 1.21.3 1.32.89.53 3 3.7 5.73 7.2 6.23 1.92.27 5.48.06 7.84-4.38 1.14-2.15-.32-7.5-3.37-10.03-1.71-1.43-3.5-1.58-5.29-.46-1.4.88-2.85 3.4-2.8 5.74.05 1.85.98 3.3 2.76 4.3.6.35 2.32.56 3.32-.1.79-.52 1.02-1.55.7-3.07-.26-1.2-1.42-3.31-1.97-3.39 0 0-.2.06-.54.54-.28.38-.54 1.82-.18 2.45.06.12.12.19.37.19.63 0 1.15.48 1.15 1.07 0 .6-.52 1.08-1.15 1.08-1.06 0-1.9-.47-2.4-1.32-.81-1.44-.37-3.73.3-4.67 1.03-1.45 2.14-1.6 2.9-1.45 2.59.48 3.76 5.03 3.77 5.08.64 3.02-.53 4.53-1.63 5.25-1.84 1.23-4.57.9-5.82.2-3.11-1.76-3.82-4.3-3.87-6.1-.08-3.33 1.9-6.39 3.82-7.59 2.65-1.66 5.6-1.43 8.08.63 3.65 3.03 5.62 9.4 3.9 12.61C23.43 24 20.3 26 16.63 26zm-.55 4a13.9 13.9 0 0 1-3.04-.34c-2.83-.63-5.45-2.2-6.85-4.09-.35-.46-.2-1.09.31-1.4a1.2 1.2 0 0 1 1.56.28c1.83 2.48 7.88 5.53 14.2 1.74a1.2 1.2 0 0 1 1.55.28c.35.47.2 1.1-.31 1.4A14.26 14.26 0 0 1 16.08 30z"/></svg>