<svg id="icon_ffm" viewBox="0 0 16 16" xmlns="http://www.w3.org/2000/svg"><path d="M9.92 1.14A4.84 4.84 0 007.74 4.7v.12h.31a3.48 3.48 0 012.84 1.52l-.13-.06C10.37 6.1 9.75 6 9.4 6.07c-.1.02-.09.07.06.15A2.71 2.71 0 019.31 11c-1.3.61-2.89.26-3.79-.81-.39-.48-.66-1.2-.55-1.45.3-.61 1.05-.99 2.06-1.02.23-.01.23-.01.31-.05.28-.14.7-.57.72-.73.01-.07.03-.06-.45-.29a4.35 4.35 0 01-1.45-.93l-.35-.32c-.1-.09-.1-.07-.14-.24a2.9 2.9 0 010-1.28c.05-.24.03-.25-.22-.12a5.3 5.3 0 00-1.26.9c-.24.24-.22.22-.26.14a3.15 3.15 0 01-.15-1.14v-.41h-.05c-.21-.03-1.02.67-1.49 1.28a5.98 5.98 0 00-1.21 3.29 6.62 6.62 0 003.85 6.44 7.18 7.18 0 008.75-1.98 6.62 6.62 0 00.98-6.32 4.09 4.09 0 00-1.4-1.94c-.24-.14-.25-.09-.1.23.21.42.38.86.49 1.3l-.1-.17a9.74 9.74 0 00-1.47-1.93c-.76-.83-1.01-1.14-1.33-1.62a3.05 3.05 0 01-.42-.73c-.05-.15-.1-.14-.36.03z"/></svg>