<svg id="icon_ff" viewBox="0 0 16 16" xmlns="http://www.w3.org/2000/svg"><path d="M10.19.16A5.53 5.53 0 0 0 7.7 4.23v.14h.36A3.98 3.98 0 0 1 11.3 6.1l-.15-.07c-.44-.2-1.15-.3-1.54-.24-.12.03-.1.08.07.17a3.1 3.1 0 0 1-.18 5.48c-1.48.7-3.3.3-4.33-.93-.45-.55-.76-1.37-.63-1.65.33-.7 1.2-1.13 2.35-1.17.27-.01.27-.01.36-.06.32-.16.8-.65.82-.83.01-.08.03-.07-.51-.33A4.97 4.97 0 0 1 5.9 5.4a7.42 7.42 0 0 0-.4-.36c-.12-.1-.12-.08-.16-.27a3.32 3.32 0 0 1 0-1.47c.05-.27.03-.28-.26-.14-.52.27-.97.6-1.43 1.04-.28.27-.25.25-.3.15a3.6 3.6 0 0 1-.17-1.3l-.01-.47h-.05c-.24-.03-1.16.77-1.7 1.47A6.84 6.84 0 0 0 .03 7.8a7.57 7.57 0 0 0 1.55 5.07 8.2 8.2 0 0 0 12.85.03 7.57 7.57 0 0 0 1.12-7.22 4.67 4.67 0 0 0-1.6-2.22c-.27-.16-.28-.1-.1.27a7.68 7.68 0 0 1 .55 1.49l-.12-.2c-.39-.7-.77-1.2-1.68-2.21-.86-.95-1.15-1.3-1.52-1.85-.3-.44-.43-.67-.48-.84-.05-.17-.1-.16-.41.04z"/></svg>