<svg id="icon_gamepad" viewBox="0 0 16 16" xmlns="http://www.w3.org/2000/svg"><path d="M12 5.5a.5.5 0 11-1 0 .5.5 0 011 0z"/><path fill-rule="evenodd" clip-rule="evenodd" d="M3.7 2a2 2 0 00-2 1.6l-1.4 8a1 1 0 001.1 1.2l.7-.1a2 2 0 001.4-1l1-1.7c.3-.6 1-1 1.7-1h3.6a2 2 0 011.8 1l1 1.7c.2.5.7.9 1.3 1h.7a1 1 0 001.1-1.1l-1.4-8a2 2 0 00-2-1.6h-1c-.5 0-1 .2-1.3.5-.3.3-.8.5-1.2.5H7.2c-.4 0-.9-.2-1.2-.5-.3-.3-.8-.5-1.2-.5H3.7zM6 5H5V4H4v1H3v1h1v1h1V6h1V5zm7 .5a1.5 1.5 0 11-3 0 1.5 1.5 0 013 0zM6 7h1v1H6V7zm3 0h1v1H9V7z"/></svg>