<svg id="icon_gamepad" xmlns="http://www.w3.org/2000/svg" viewBox="0 0 16 16"><path d="M12 6.5a.5.5 0 1 1-1 0 .5.5 0 0 1 1 0Z"/><path fill-rule="evenodd" clip-rule="evenodd" d="M3.7 3a2 2 0 0 0-2 1.6l-1.4 8a1 1 0 0 0 1.1 1.2l.7-.1a2 2 0 0 0 1.4-1l1-1.7c.3-.6 1-1 1.7-1h3.6a2 2 0 0 1 1.8 1l1 1.7c.2.5.7.9 1.3 1h.7a1 1 0 0 0 1.1-1.1l-1.4-8a2 2 0 0 0-2-1.6h-1c-.5 0-1 .2-1.3.5-.3.3-.8.5-1.2.5H7.2c-.4 0-.9-.2-1.2-.5-.3-.3-.8-.5-1.2-.5H3.7ZM6 6H5V5H4v1H3v1h1v1h1V7h1V6Zm7 .5a1.5 1.5 0 1 1-3 0 1.5 1.5 0 0 1 3 0ZM6 8h1v1H6V8Zm3 0h1v1H9V8Z"/></svg>