<svg id="gift" xmlns="http://www.w3.org/2000/svg" viewBox="0 0 32 32"><path d="M30.3 8.1h-4.5V8c.7-.7 1.3-1.9 1.3-3.2 0-2.6-2.1-4.7-4.9-4.7-1.5 0-4.5 1.5-6.4 3.4C14 1.6 11 .1 9.5.1 6.9.1 4.6 2.2 4.6 4.8 4.7 6.1 5.2 7.2 6 8H1.7C.6 8 0 8.7 0 9.6v4.5c0 .2.2.4.4.4h13.8V9.6h3.2v4.9h14.2c.2 0 .4-.2.4-.4V9.6c0-.9-.6-1.5-1.7-1.5zM9.5 6.5C8.6 6.5 8 5.9 8 4.8s.6-1.5 1.5-1.5 3.7 1.9 4.7 2.8c-.5.2-4.7.4-4.7.4zm12.8 0s-4.1-.2-4.7-.4c.9-1.1 3.7-2.8 4.7-2.8s1.7.5 1.7 1.5-.8 1.7-1.7 1.7zM1.7 17.7h12.7v14.2H1.7V17.7zm15.9 0h12.7v14.2H17.6V17.7z"/></svg>