<svg id="icon_hide" xmlns="http://www.w3.org/2000/svg" viewBox="0 0 16 16"><path fill-rule="evenodd" clip-rule="evenodd" d="M9.5 3.2 8 3C5.5 3 3 5 .5 7.5L0 8l.5.5c1.3 1.4 2.7 2.6 4 3.4l.8-1.3C4.3 10 3.3 9 2 8c2.2-2 4-3.5 5.9-3.5h.7l.8-1.3ZM8.2 5.6H8a2.4 2.4 0 0 0-2 3.7l2.2-3.7Zm-.4 4.8L10 6.7c.3.3.4.8.4 1.3a2.4 2.4 0 0 1-2.6 2.4Zm-.5 1 .7.1c1.8 0 3.7-1.4 5.9-3.5a22 22 0 0 0-3.2-2.6l.8-1.3c1.3.8 2.7 2 4 3.4l.5.5-.5.5C13 11.1 10.5 13 8 13c-.5 0-1 0-1.5-.2l.8-1.4Z"/><rect x="11.3" y="1.1" width="1.3" height="15.3" rx=".6" transform="rotate(30 11.3 1)"/></svg>