<svg id="icon_hourglass" xmlns="http://www.w3.org/2000/svg" viewBox="0 0 16 16"><path fill-rule="evenodd" clip-rule="evenodd" d="M5 1a1.5 1.5 0 0 0-1.2 2.4S4.7 5.05 5.43 6c.66.84 1.86 2 1.86 2s-1.2 1.17-1.86 2.01c-.73.95-1.65 2.59-1.65 2.59A1.5 1.5 0 0 0 5 15h6.02a1.5 1.5 0 0 0 1.2-2.4s-.98-1.63-1.73-2.59C9.84 9.2 8.7 8 8.7 8s1.14-1.17 1.78-2c.75-.96 1.73-2.6 1.73-2.6A1.5 1.5 0 0 0 11 1H4.99Zm-.4 1.5c0-.3.15-.5 1.4-.5h4c1.26 0 1.43.15 1.43.5 0 .34-.5.87-.58 1.01L9.8 5 8 5.7 6.2 5l-1-1.5c-.14-.17-.6-.8-.6-1Zm.24 10.67a.5.5 0 0 0 .6.6L8 11.5l2.48 2.13a.5.5 0 0 0 .7-.6s-.9-1.5-1.6-2.36C9.01 9.97 8 9 8 9s-1.02.97-1.59 1.67c-.7.87-1.57 2.4-1.57 2.4v.1Z"/></svg>