<svg id="icon_link" viewBox="0 0 16 16" xmlns="http://www.w3.org/2000/svg"><path d="M4.63 2.72c-.94.55-1.22 1.89-1.07 2.14l2.16 3.75c.15.25 1.47.72 2.41.18.16-.1.3-.2.41-.3l.67 1.16c-.13.1-.27.19-.42.27-1.67.97-3.63.72-4.37-.56l-2.14-3.7c-.74-1.29.02-3.1 1.7-4.07C5.65.62 7.6.87 8.34 2.15l.64 1.1-1.52.37-.41-.72c-.15-.25-1.47-.72-2.42-.18Z"/><path d="M7.93 12.44c.15.25 1.44.68 2.4.13.94-.54 1.21-1.88 1.07-2.13L9.23 6.69c-.14-.25-1.46-.72-2.4-.18-.17.1-.3.2-.42.3l-.67-1.16.42-.27c1.68-.97 3.63-.72 4.37.56l2.14 3.7c.74 1.28-.02 3.1-1.7 4.07-1.67.97-3.62.71-4.36-.56l-.63-1.1 1.54-.33.41.72Z"/></svg>