<svg viewBox="0 0 16 16" fill="none" xmlns="http://www.w3.org/2000/svg"><path d="M2.08 0C1.55 0 1.03.28.65.66c-.39.39-.65.9-.65 1.43v.85c0 .36.3.66.67.66h5.37c.3 0 .56-.2.64-.48L7.33.85a.66.66 0 00-.64-.84H2.08z" fill="url(#paint0_linear)"/><path d="M10.47 0c-.3 0-.56.2-.64.49l-4.2 14.66c-.11.43.2.85.65.85h1.86c.3 0 .56-.2.64-.48L12.97.85a.66.66 0 00-.64-.84h-1.86z" fill="url(#paint1_linear)"/><path d="M16 4.13c0-.77-1.1-.92-1.3-.18l-3.2 11.2c-.13.43.2.85.63.85h1.8c.52 0 1.04-.26 1.42-.65.39-.38.65-.9.65-1.43V4.13z" fill="url(#paint2_linear)"/><path d="M.67 5.65c-.37 0-.67.3-.67.66v2.26c0 .36.3.66.67.66h3.76c.3 0 .56-.2.64-.48l.64-2.26a.66.66 0 00-.63-.84H.67z" fill="url(#paint3_linear)"/><path d="M.67 11.29c-.37 0-.67.3-.67.66v1.97c0 .53.26 1.05.65 1.43.38.39.9.65 1.43.65h.42c.3 0 .55-.2.63-.48l.97-3.39a.66.66 0 00-.64-.84H.66z" fill="url(#paint4_linear)"/><defs><linearGradient id="paint0_linear" x1="8" y1=".01" x2="8" y2="16" gradientUnits="userSpaceOnUse"><stop stop-color="#868686"/><stop offset="1" stop-color="#565656"/></linearGradient><linearGradient id="paint1_linear" x1="8" y1=".01" x2="8" y2="16" gradientUnits="userSpaceOnUse"><stop stop-color="#868686"/><stop offset="1" stop-color="#565656"/></linearGradient><linearGradient id="paint2_linear" x1="8" y1=".01" x2="8" y2="16" gradientUnits="userSpaceOnUse"><stop stop-color="#868686"/><stop offset="1" stop-color="#565656"/></linearGradient><linearGradient id="paint3_linear" x1="8" y1=".01" x2="8" y2="16" gradientUnits="userSpaceOnUse"><stop stop-color="#868686"/><stop offset="1" stop-color="#565656"/></linearGradient><linearGradient id="paint4_linear" x1="8" y1=".01" x2="8" y2="16" gradientUnits="userSpaceOnUse"><stop stop-color="#868686"/><stop offset="1" stop-color="#565656"/></linearGradient></defs></svg>