<svg fill="none" xmlns="http://www.w3.org/2000/svg" viewBox="0 0 16 16"><path d="M7.8 1.6c.1-.3-.1-.6-.5-.6H2.8C1.8 1 1 1.8 1 2.8v.7c0 .3.2.5.5.5h5.3c.2 0 .4-.2.5-.4l.5-2ZM1.5 6c-.3 0-.5.2-.5.5v2c0 .3.2.5.5.5h4c.2 0 .4-.2.5-.4l.5-2c0-.3-.2-.6-.5-.6H1.5Zm0 5c-.3 0-.5.2-.5.5v1.8c0 1 .8 1.7 1.8 1.7h1c.3 0 .5-.2.5-.4l.9-3c0-.3-.2-.6-.5-.6H1.5ZM7 15a.5.5 0 0 1-.4-.6l3.5-13c0-.2.2-.4.5-.4h2c.3 0 .5.3.4.6l-3.5 13c0 .2-.2.4-.4.4H7Zm4.8-.6c-.1.3.1.6.5.6h1c1 0 1.7-.8 1.7-1.8V4.6c0-.5-.4-.5-.6 0l-2.6 9.9Z" fill="#888"/></svg>