<svg id="icon_man" viewBox="0 0 16 16" xmlns="http://www.w3.org/2000/svg"><path d="M10.9 5.36c-.1.49-.29.93-.54 1.3C10 7.34 9.74 8.28 10 9l-2 1.83-1.85-1.68c.35-.68.02-1.62-.4-2.33-.31-.4-.54-.9-.66-1.44-.13-.03-.23-.3-.23-.62 0-.24.06-.44.14-.55v-.12c-.02-.84-.03-1.53.5-2.08S7.23 1 8 1c.82 0 1.96.38 2.5 1 .5.57.5 1.35.5 2.2.08.12.13.32.13.55 0 .32-.1.58-.22.61z"/><path d="M11 9.43l-3 2.75L5 9.44C2.63 10.16 1 11.7 1 13.5c0 .39.08.77.22 1.13A1 1 0 002 15h12a1 1 0 00.78-.37c.14-.36.22-.74.22-1.13 0-1.8-1.64-3.35-4-4.07z"/></svg>