<svg id="icon_move_to_priv_win" viewBox="0 0 16 16" xmlns="http://www.w3.org/2000/svg"><path fill-rule="evenodd" clip-rule="evenodd" d="M12.4 11c-.8 0-1.5-.5-2.2-1-.7-.5-1.4-1-2.2-1-.8 0-1.5.5-2.2 1H1.3C.5 9.1 0 7.6 0 5.7 0 3.7.6 3 3.3 3c1.5 0 2.5.4 3.2.7.5.2 1 .4 1.5.4s1-.2 1.5-.4c.8-.3 1.7-.7 3.2-.7 2.7 0 3.3.7 3.3 2.7 0 3.4-1.5 5.3-3.6 5.3zM4.6 5.5c-1.6.1-2.3 1-2.3 1.3 0 .3 1 1 2.1 1 1 0 2.3-.4 2.3-.8a1.9 1.9 0 00-2.1-1.4zm6.8 0A1.9 1.9 0 009.3 7c0 .3 1.2.7 2.3.7 1 0 2.1-.6 2.1-.9 0-.2-.7-1.2-2.3-1.2z"/><path d="M5 11H1v1h2.4L.5 14.8l.7.8 2.9-2.9V15h1v-4z"/></svg>