<svg id="icon_move_to_new_priv_win" viewBox="0 0 16 16" xmlns="http://www.w3.org/2000/svg"><path fill-rule="evenodd" clip-rule="evenodd" d="M14 8v1.6c1.2-.8 2-2.5 2-4.9 0-2-.6-2.7-3.3-2.7-1.5 0-2.4.4-3.2.7-.5.2-1 .4-1.5.4S7 3 6.5 2.7C5.8 2.4 4.8 2 3.3 2 .6 2 0 2.7 0 4.7 0 8.1 1.5 10 3.6 10c.8 0 1.5-.5 2.2-1 .7-.5 1.4-1 2.2-1 .8 0 1.5.5 2.2 1l.8.6V8h3zM4.6 4.5c-1.6.1-2.3 1-2.3 1.3 0 .3 1 1 2.1 1 1 0 2.3-.4 2.3-.8a1.9 1.9 0 00-2.1-1.4zm6.8 0A1.9 1.9 0 009.3 6c0 .3 1.2.7 2.3.7 1 0 2.1-.6 2.1-.9 0-.2-.7-1.2-2.3-1.2z"/><path d="M13 9h-1v3H9v1h3v3h1v-3h3v-1h-3V9zM1 11h4v4H4v-2.2l-2.8 2.8-.7-.7L3.4 12H1v-1z"/></svg>