<svg id="icon_new_priv_win" viewBox="0 0 16 16" xmlns="http://www.w3.org/2000/svg"><path fill-rule="evenodd" clip-rule="evenodd" d="M14 8v2.55c1.2-.75 1.98-2.43 2-4.81 0-2.07-.59-2.72-3.26-2.72a7.5 7.5 0 00-3.24.7c-.52.21-.97.4-1.5.4s-.98-.19-1.5-.41C5.75 3.39 4.84 3 3.27 3 .6 3-.01 3.66 0 5.73c.01 3.33 1.53 5.29 3.6 5.29.78 0 1.47-.5 2.17-.99.71-.5 1.43-1.01 2.23-1.01s1.47.5 2.16.99c.28.2.55.4.84.57V8h3zM4.58 5.56l-.01-.01C2.95 5.62 2.3 6.59 2.3 6.82c0 .23 1.07.9 2.12.9a4.2 4.2 0 002.15-.51c.12-.1.1-.27.05-.41a1.9 1.9 0 00-2.04-1.23v-.01zm6.85 0v-.01A1.9 1.9 0 009.36 6.8c-.05.14-.06.3.05.4.33.28 1.3.54 2.17.54 1.05 0 2.12-.67 2.12-.91s-.66-1.2-2.27-1.27z"/><path d="M12 9h1v3h3v1h-3v3h-1v-3H9v-1h3V9z"/></svg>