<svg id="icon_panel_config" viewBox="0 0 16 16" xmlns="http://www.w3.org/2000/svg"><path fill-rule="evenodd" clip-rule="evenodd" d="M3.3 2.3A1 1 0 0 1 4 2h4a1 1 0 0 1 1 1v10a1 1 0 0 1-1 1H4a1 1 0 0 1-1-1V3a1 1 0 0 1 .3-.7ZM8 4H4v1h4V4Zm0 2H4v1h4V6ZM6 8H4v1h2V8Z"/><path d="m10 10.5.1 1.45h-.01c.41.06.83.06 1.24 0l.1-1.55c.26-.07.51-.17.74-.31l1.1 1.02c.34-.26.63-.57.88-.92l-.97-1.17c.13-.24.23-.49.3-.77l1.48-.1c.06-.43.06-.88 0-1.31l-1.48-.1a3.54 3.54 0 0 0-.3-.76l.97-1.17a4.27 4.27 0 0 0-.88-.92l-1.11 1.02a2.7 2.7 0 0 0-.72-.31l-.1-1.55a4.12 4.12 0 0 0-1.24 0L10 4.51v1.47c.22-.08.46-.13.71-.13 1.1 0 1.46.89 1.46 1.6 0 .73-.41 1.69-1.46 1.69-.25 0-.49-.05-.71-.12v1.48Z"/></svg>