<svg id="pet" xmlns="http://www.w3.org/2000/svg" viewBox="0 0 32 32"><path d="M28.5 8.1c0-1.1-1-1.9-2.1-2.4v-2c-.2-.2-.3-.3-.6-.3-.6 0-1.1.8-1.3 2.1H24c0-.2 0-.3-.2-.5a7.9 7.9 0 0 0-1.3-2.6c-.5.2-.8.8-.8 1.6l.3 2.3c-.3.2-.6.3-1 .6l-3.5 3.7s-6.3-.8-10.9.2c-.6 0-1 .2-1.1.3-.5.2-.8.3-1.1.6-1.1-.8-2.2-2.1-3.2-4 0-.3-.5-.5-.8-.5s-.5.6-.3 1c.8 2.1 2.1 3.5 3.4 4.5-.5.5-.8 1-1 1.6 0 0-.3 2.2-.3 5.5l1.4 8c0 1 .8 1.8 1.9 1.8 1 0 1.9-.8 1.9-1.8V23l.5-1.3h8.8l.8 1.3v4.7c0 1 .8 1.8 1.9 1.8 1 0 1.6-.6 1.8-1.4l1.9-9 2.1-6.4h3c3.4 0 3.7-2.9 3.7-2.9l-3.4-1.7z"/></svg>