<svg id="icon_rm_branch" xmlns="http://www.w3.org/2000/svg" viewBox="0 0 16 16"><path d="M11.07 11H9.62l-1.15 2H9.9l1.16-2Zm1.01 2h1.42a.5.5 0 0 0 .5-.5v-1a.5.5 0 0 0-.5-.5h-.27l-1.15 2ZM4.5 11h2.96L6.3 13H4.5a.5.5 0 0 1-.5-.5v-1c0-.28.22-.5.5-.5Zm6.57-4H9.62L8.47 9H9.9l1.16-2Zm1.01 2h1.42a.5.5 0 0 0 .5-.5v-1a.5.5 0 0 0-.5-.5h-.27l-1.15 2ZM4.5 7h2.96L6.3 9H4.5a.5.5 0 0 1-.5-.5v-1c0-.28.22-.5.5-.5Zm6.57-4H9.62L8.47 5H9.9l1.16-2Zm1.01 2h1.42a.5.5 0 0 0 .5-.5v-1a.5.5 0 0 0-.5-.5h-.27l-1.15 2ZM1.5 3h5.96L6.3 5H1.5a.5.5 0 0 1-.5-.5v-1c0-.28.22-.5.5-.5Z"/></svg>