<svg id="icon_reopen_in_priv_wins" viewBox="0 0 16 16" xmlns="http://www.w3.org/2000/svg"><path fill-rule="evenodd" clip-rule="evenodd" d="M12.4 10c-.8 0-1.5-.5-2.2-1-.7-.5-1.4-1-2.2-1a2 2 0 00-.6.1A1 1 0 007 8H6a1 1 0 00-.8.3 4.5 4.5 0 00-4.1.4c-.7-1-1-2.3-1.1-4C0 2.7.6 2 3.3 2c1.5 0 2.5.4 3.2.7.5.2 1 .4 1.5.4s1-.2 1.5-.4c.8-.3 1.7-.7 3.2-.7 2.7 0 3.3.7 3.3 2.7 0 3.4-1.5 5.3-3.6 5.3zM4.6 4.5c-1.6.1-2.3 1-2.3 1.3 0 .3 1 1 2.1 1 1 0 2.3-.4 2.3-.8a1.9 1.9 0 00-2.1-1.4zm6.8 0A1.9 1.9 0 009.3 6c0 .3 1.2.7 2.3.7 1 0 2.1-.6 2.1-.9 0-.2-.7-1.2-2.3-1.2z"/><path d="M4 12v-1h1.4c-.4-.5-1-.8-1.8-.8-1.3 0-2.4 1-2.4 2.2 0 1.3 1 2.3 2.4 2.3.8 0 1.6-.5 2-1.1l.7.8c-.7.8-1.7 1.3-2.7 1.3a3.3 3.3 0 01-3.4-3.3c0-1.8 1.6-3.2 3.4-3.2.9 0 1.7.3 2.4 1V9h1v3H4zM16 12h-2v2h2v-2zM11 12h2v2h-2v-2zM10 12H8v2h2v-2z"/></svg>