<svg id="icon_reopen_in_norm_wins" viewBox="0 0 16 16" xmlns="http://www.w3.org/2000/svg"><path fill-rule="evenodd" clip-rule="evenodd" d="M0 6c0-1.1.9-2 2-2h1V3c0-1.1.9-2 2-2h9a2 2 0 012 2v6a2 2 0 01-2 2h-1v1a2 2 0 01-2 2H8.3a5 5 0 00.2-2H11V8H5.3A5 5 0 000 9.1V6zm5-3h9v6h-1V6a2 2 0 00-2-2H5V3zm6 4V6H2v1h9z"/><path d="M3.9 11.1v1H7V9H6v1.2c-.7-.6-1.6-1-2.5-1A3.4 3.4 0 000 12.6c0 2 1.6 3.4 3.5 3.4 1 0 2.1-.5 2.8-1.3l-.7-.9C5 14.5 4.4 15 3.5 15 2 15 1 14 1 12.6c0-1.3 1.1-2.4 2.5-2.4.8 0 1.4.4 1.9.9H3.9z"/></svg>