<svg id="icon_reopen_in_priv_win" viewBox="0 0 16 16" xmlns="http://www.w3.org/2000/svg"><path fill-rule="evenodd" clip-rule="evenodd" d="M10.2 9c.7.5 1.4 1 2.2 1 2 0 3.6-2 3.6-5.3 0-2-.6-2.7-3.3-2.7-1.5 0-2.4.4-3.2.7-.5.2-1 .4-1.5.4S7 3 6.5 2.7C5.8 2.4 4.8 2 3.3 2 .6 2 0 2.7 0 4.7c0 1.7.4 3 1 4a4.5 4.5 0 014.2-.4c.2-.2.5-.3.8-.3h1l.4.1H8c.8 0 1.5.4 2.2 1zM2.3 5.8c0-.2.7-1.2 2.3-1.3a1.9 1.9 0 012 1.5c0 .4-1.1.7-2.2.7-1 0-2.1-.7-2.1-.9zm7.8-1c.4-.2.9-.3 1.3-.3 1.6.1 2.3 1 2.3 1.3 0 .3-1 1-2.1 1-1 0-2.3-.5-2.3-.8.1-.5.4-.9.8-1.1z"/><path d="M4 11v1h3V9H6v1.1c-.7-.6-1.5-1-2.4-1a3.3 3.3 0 00-3.4 3.3c0 1.9 1.6 3.3 3.4 3.3 1 0 2-.5 2.7-1.3l-.7-.8c-.4.6-1.2 1-2 1-1.3 0-2.4-1-2.4-2.2 0-1.2 1-2.2 2.4-2.2.7 0 1.4.3 1.8.8H4z"/></svg>