<svg id="icon_reopen_in_new_priv_win" viewBox="0 0 16 16" xmlns="http://www.w3.org/2000/svg"><path fill-rule="evenodd" clip-rule="evenodd" d="M14 8v1.6c1.2-.8 2-2.5 2-4.9 0-2-.6-2.7-3.3-2.7-1.5 0-2.4.4-3.2.7-.5.2-1 .4-1.5.4S7 3 6.5 2.7C5.8 2.4 4.8 2 3.3 2 .6 2 0 2.7 0 4.7c0 1.7.4 3 1 4a4.5 4.5 0 014.2-.4c.2-.2.5-.3.8-.3h1l.4.1H8c.8 0 1.5.4 2.2 1l.8.5V8h3zM4.6 4.5c-1.6.1-2.3 1-2.3 1.3 0 .3 1 1 2.1 1 1 0 2.3-.4 2.3-.8a1.9 1.9 0 00-2.1-1.4zm6.8 0A1.9 1.9 0 009.3 6c0 .3 1.2.7 2.3.7 1 0 2.1-.6 2.1-.9 0-.2-.7-1.2-2.3-1.2z"/><path d="M4 11v1h3V9H6v1.1c-.6-.6-1.5-1-2.4-1a3.3 3.3 0 00-3.4 3.3c0 1.9 1.6 3.3 3.4 3.3 1 0 2-.5 2.7-1.3l-.7-.8c-.4.6-1.2 1-2 1-1.3 0-2.4-1-2.4-2.2 0-1.2 1-2.2 2.4-2.2.7 0 1.4.3 1.8.8H4zM12 9h1v3h3v1h-3v3h-1v-3H9v-1h3V9z"/></svg>