<svg id="icon_restore_tabs" width="16" height="16" xmlns="http://www.w3.org/2000/svg"><path d="M1 5.416 5.5 1 10 5.416 9 6 6.03 3.334V11H4.97V3.334L2 6l-1-.584Z"/><path d="M9 8.8c0-.442.373-.8.833-.8h3.334c.46 0 .833.358.833.8V16l-.833-.8-1.667-2-1.667 2L9 16V8.8Z" fill-opacity=".7"/><path d="M14 7a1 1 0 0 1 1 1v5l1 1V7a1 1 0 0 0-1-1h-3a1 1 0 0 0-1 1h3Z"/><path fill-rule="evenodd" clip-rule="evenodd" d="m14 16-.833-.8-1.667-2-1.667 2L9 16V8.8c0-.442.373-.8.833-.8h3.334c.46 0 .833.358.833.8V16Zm-2.5-4.08-1.667 2V8.8h3.334v5.12l-1.667-2Z"/></svg>