<svg id="icon_save_as_pdf" viewBox="0 0 16 15" xmlns="http://www.w3.org/2000/svg"><path fill-rule="evenodd" clip-rule="evenodd" d="M2.1 7V5h.8c.7 0 1.2-.2 1.5-.5.4-.4.6-.9.6-1.4 0-.4 0-.8-.3-1.1-.1-.3-.4-.6-.7-.7C3.7 1 3.3 1 3 1H.7v6h1.3zM2.9 4h-.8V2h.8c.3 0 .5.1.6.3l.2.7c0 .2 0 .4-.2.6l-.6.2zM6 1v6h1.7c.5 0 1-.1 1.3-.3.4-.3.7-.6.9-1 .2-.5.3-1 .3-1.6V4c0-.6-.1-1-.4-1.5-.2-.4-.5-.8-.8-1C8.6 1 8.2 1 7.7 1H6zm1.3 5V2h.4c.4 0 .7.2.9.5.2.3.3.7.3 1.3V4c0 .6-.1 1-.3 1.4a1 1 0 01-.9.4h-.4z"/><path d="M14.3 4.6h-2V7h-1.4V1h3.6v1.1h-2.3v1.4h2v1.1zM7 9h2V12l2-2 .8.9L8 14.5l-3.7-3.7.8-.9L7 12V9z"/></svg>