<svg id="icon_settings" viewBox="0 0 16 16" xmlns="http://www.w3.org/2000/svg"><path fill-rule="evenodd" clip-rule="evenodd" d="M12.33 5.5a.8.8 0 0 1 .09-.96l.96-1.02a7 7 0 0 0-.9-.9l-1.02.97a.8.8 0 0 1-.96.08.8.8 0 0 1-.4-.87l.32-1.37A7 7 0 0 0 9.2 1.1l-.4 1.35a.8.8 0 0 1-.78.55c-.36 0-.7-.21-.8-.55l-.4-1.35a7.09 7.09 0 0 0-1.23.33L5.9 2.8c.08.35-.1.7-.42.88a.8.8 0 0 1-.95-.09l-1.02-.96a7 7 0 0 0-.9.9l.97 1.02a.8.8 0 0 1 .08.96.8.8 0 0 1-.87.4l-1.37-.32c-.15.4-.26.81-.33 1.23l1.35.4c.34.1.55.43.55.78 0 .36-.21.7-.55.8l-1.35.4a7.1 7.1 0 0 0 .33 1.23l1.36-.33c.35-.08.7.1.88.42.18.3.16.7-.09.95l-.96 1.02c.27.33.58.63.9.9l1.02-.97a.8.8 0 0 1 .96-.08c.3.18.5.53.4.87l-.32 1.37a7 7 0 0 0 1.23.33l.4-1.35a.8.8 0 0 1 .78-.55c.36 0 .7.21.8.55l.4 1.35a7.1 7.1 0 0 0 1.23-.33l-.33-1.36c-.08-.35.1-.7.42-.88a.8.8 0 0 1 .95.09l1.02.96c.33-.27.63-.58.9-.9l-.97-1.02a.8.8 0 0 1-.08-.96.8.8 0 0 1 .87-.4l1.37.32a7 7 0 0 0 .33-1.23l-1.35-.4a.8.8 0 0 1-.55-.78c0-.36.21-.7.55-.8l1.35-.4a7.1 7.1 0 0 0-.33-1.23l-1.36.33c-.35.08-.7-.1-.88-.42zm-5.55 5.09c-.15.59-.8.92-1.27.54a3.98 3.98 0 0 1-1.23-4.6c.22-.56.94-.6 1.37-.16L7 7.77a1 1 0 0 1 .25.93l-.47 1.89zm1.81 1.37c-.6.09-1-.52-.83-1.1l.54-1.87a1 1 0 0 1 .69-.69l1.87-.54c.58-.16 1.19.23 1.1.83a4 4 0 0 1-3.37 3.37zm2-5.18c.6-.15.92-.8.54-1.27a4 4 0 0 0-4.6-1.23c-.56.22-.6.94-.16 1.36L7.77 7a1 1 0 0 0 .93.25l1.9-.47z"/></svg>