<svg id="icon_sort_url" viewBox="0 0 16 16" xmlns="http://www.w3.org/2000/svg"><path d="M11 1h1.5l3 5H13v9h-1.5l-3-5H11V1zM3.76 3.96c0-.28.33-.9 1.26-.92.92-.02 1.28.58 1.28.87l.02.8 1.71.8L8 3.88c-.03-1.43-1.38-2.56-3.02-2.52C3.34 1.38 2.04 2.57 2.07 4l.09 4.14c.03 1.43 1.38 2.56 3.02 2.52l.42-.03-.04-1.72c-.12.04-.26.06-.42.06-.92.02-1.28-.58-1.29-.87l-.09-4.14z"/><path d="M5.23 13.2c-.93.02-1.28-.58-1.29-.86l-.02-.8-1.7-.81.03 1.64c.03 1.43 1.38 2.56 3.02 2.53 1.63-.04 2.94-1.22 2.9-2.65L8.1 8.1C8.06 6.68 6.7 5.55 5.07 5.58c-.14 0-.29.02-.42.04l.03 1.71c.13-.03.27-.05.42-.05.93-.02 1.29.58 1.3.86l.08 4.14c0 .29-.33.9-1.25.92z"/></svg>