<svg id="icon_sort_az" viewBox="0 0 16 16" xmlns="http://www.w3.org/2000/svg"><path fill-rule="evenodd" clip-rule="evenodd" d="M7.82 7.56H6.64a.52.52 0 01-.32-.1.6.6 0 01-.18-.23l-.4-1.15H3.27l-.4 1.15a.56.56 0 01-.17.23.5.5 0 01-.32.1H1.2L3.72 1h1.56l2.54 6.56zM5.4 5.05l-.6-1.8a7.96 7.96 0 01-.3-.9 7.09 7.09 0 01-.29.91l-.6 1.79h1.8z"/><path d="M12.5 1H11v9H8.5l3 5H13V6h2.5l-3-5zM7.04 9.76a.67.67 0 00.04-.23v-.55h-4.9v1.17h2.97l-3.1 4.4a.7.7 0 00-.13.4v.58h5.06v-1.17H3.86l3.08-4.4a.81.81 0 00.1-.2z"/></svg>