<svg id="icon_sort_url_des" viewBox="0 0 16 16" xmlns="http://www.w3.org/2000/svg"><path d="M5 2.1c-.94 0-1.8.94-1.8 1.2v3.66c0 .25.86 1.13 1.8 1.13a4.75 4.75 0 0 0 1-.27V9c-.06 0-.23.05-.41.1-.24.08-.5.15-.59.15-1.66 0-3-1.03-3-2.3V3.3C2 2.03 3.34 1 5 1s3 1.03 3 2.3V4H6.8v-.7c0-.26-.86-1.2-1.8-1.2ZM6.65 11c-.28.37-.95.9-1.65.9-.94 0-1.8-.94-1.8-1.2V10H2v.7C2 11.98 3.34 13 5 13c1.53 0 2.79-.87 2.98-2H6.65Z"/><path d="M8 7.04V8H6.8V7c0-.25-.86-1.1-1.8-1.1-.16 0-.87.07-1 .1V4.83c.14-.02.85-.08 1-.08 1.66 0 3 1.03 3 2.3ZM7 9h8v1H7V9ZM9 11h6v1H9v-1ZM11 13h4v1h-4v-1Z"/></svg>