<svg id="icon_sort_url_asc" viewBox="0 0 16 16" xmlns="http://www.w3.org/2000/svg"><path d="M3.2 3.3c0-.26.86-1.2 1.8-1.2.94 0 1.8.94 1.8 1.2V4H8v-.7C8 2.02 6.66 1 5 1S2 2.03 2 3.3v3.66c0 1.26 1.34 2.29 3 2.29.08 0 .35-.07.59-.14.18-.06.35-.1.41-.11V7.82l-.27.08c-.26.08-.62.2-.73.2-.94 0-1.8-.89-1.8-1.14V3.29Z"/><path d="M5 11.9c-.94 0-1.8-.94-1.8-1.2V10H2v.7C2 11.98 3.34 13 5 13s3-1.03 3-2.3V7.05c0-1.26-1.34-2.29-3-2.29-.15 0-.86.06-1 .08V6c.13-.03.84-.1 1-.1.94 0 1.8.85 1.8 1.1v3.7c0 .26-.86 1.2-1.8 1.2ZM15 9h-4v1h4V9ZM9 11h6v1H9v-1ZM7 13v1h8v-1H7Z"/></svg>