<svg id="icon_star_add" viewBox="0 0 16 16" xmlns="http://www.w3.org/2000/svg"><path d="M6.23.84a1.25 1.25 0 012.36 0L9.83 4.4l3.77.08a1.25 1.25 0 01.73 2.24L12.64 8H11v3h-.64l-.52-1.73c-.15-.5.02-1.05.44-1.36l2.57-1.95-3.22-.06a1.25 1.25 0 01-1.16-.84L7.41 2 6.35 5.06c-.17.49-.63.82-1.15.84l-3.22.06 2.56 1.95c.42.31.6.86.45 1.36l-.94 3.08 2.65-1.84c.43-.3 1-.3 1.43 0l.7.49H8v1.25l-.59-.4-3.1 2.14a1.25 1.25 0 01-1.9-1.38L3.5 9l-3-2.28a1.25 1.25 0 01.73-2.24l3.76-.08L6.23.84z"/><path d="M12 9h1v3h3v1h-3v3h-1v-3H9v-1h3V9z"/></svg>