<svg id="icon_star" width="16" height="16" xmlns="http://www.w3.org/2000/svg"><path fill-rule="evenodd" clip-rule="evenodd" d="M6.82 1.11a1.25 1.25 0 0 1 2.36 0l1.24 3.56 3.77.08a1.25 1.25 0 0 1 .73 2.24l-3 2.28 1.08 3.6a1.25 1.25 0 0 1-1.9 1.4L8 12.1l-3.1 2.16a1.25 1.25 0 0 1-1.9-1.4l1.09-3.6-3-2.28a1.25 1.25 0 0 1 .72-2.24l3.77-.08 1.24-3.56zM8 2.28L6.94 5.33c-.17.5-.63.83-1.15.84l-3.23.06 2.57 1.95c.42.32.6.86.44 1.36l-.93 3.08 2.65-1.84c.43-.3 1-.3 1.42 0l2.65 1.84-.93-3.08c-.16-.5.02-1.04.44-1.36l2.57-1.95-3.23-.06a1.25 1.25 0 0 1-1.15-.84L8 2.28z"/></svg>