<svg id="icon_url_conf" xmlns="http://www.w3.org/2000/svg" viewBox="0 0 16 16"><path d="M4.7 3.7c0-.3.4-1 1.3-1 1 0 1.3.7 1.3 1v.8l1.7.9V3.7C9 2.2 7.7 1 6 1S3 2.2 3 3.7V8c0 1.4 1.3 2.6 3 2.6h.4V8.8H6c-1 0-1.3-.6-1.3-.8V3.7Z"/><path d="M6 13.3c-1 0-1.3-.7-1.3-1v-.8L3 10.6v1.7C3 13.8 4.3 15 6 15s3-1.2 3-2.7V8c0-1.4-1.3-2.6-3-2.6h-.4v1.8H6c1 0 1.3.6 1.3.8v4.3c0 .3-.4 1-1.3 1Zm3.8-2 .1 1.6H11l.1-1.7c.3 0 .5-.2.8-.3l1 1.1 1-1-1-1.3.3-.9h1.5V7.2l-1.5-.1-.3-.9L14 5l-1-1-1 1-.8-.3V3H9.8l-.1 1.6v1.6l.7-.1c1.1 0 1.5 1 1.5 1.8s-.4 1.8-1.5 1.8l-.7-.1v1.6Z"/></svg>