<svg id="vacation" xmlns="http://www.w3.org/2000/svg" viewBox="0 0 32 32"><path d="M3.6 27l-2.5-1.8-.3-.2c-.7-.4-.7-1.2-.4-2 .4-.5 1.1-.7 1.6-.5l3.6 1.2c0-.4.2-.9.4-1.4.2-.7.5-1.6 1.1-2.3.2-.4.5-.7.7-1.2.2-.4.5-.9.9-1.2.4-.9 1.1-1.6 1.8-2.5.7-.9 1.4-1.6 2.3-2.5.4-.4.9-.7 1.2-1.2.4-.2.9-.7 1.2-1.1l.4-.4L3.1 7.3h-.4l-2 .9c-.5.1-1-.6-.5-1.1l2-2c.2-.1.2-.1.3-.1h17.9c.5-.5 1.2-1.1 1.8-1.6.7-.7 1.4-1.2 2.1-1.8.4-.4.7-.5 1.1-.7.4-.2.7-.4 1.1-.5.5 0 .9-.2 1.2-.2h2.2c.4 0 .5 0 .7.2.5 0 .7.2.7.2.2 0 .2.2.4.4 0 0 0 .4.2.7 0 .2 0 .5.2.7v2.2c0 .4 0 .9-.2 1.2-.2.4-.4.7-.5 1.1-.2.4-.5.7-.7 1.1-.5.7-1.1 1.4-1.8 2.1l-1.1 1.1V29c0 .2 0 .4-.2.4l-2 2c-.5.5-1.2 0-1.1-.5l.7-2v-.4L22.8 16l-.9.9c-.4.4-.7.9-1.2 1.2-.4.4-.7.9-1.2 1.2-.7.9-1.6 1.6-2.5 2.3-.9.7-1.6 1.4-2.5 2-.4.4-.9.5-1.2.9-.4.2-.7.5-1.2.7-.7.4-1.6.7-2.3 1.1-.4.2-.7.2-1.2.4l1 3.3c.4.7 0 1.4-.7 1.8-.5.2-1.2 0-1.6-.5l-.2-.4-1.8-2.3c-.2 0-.2 0-.4.2-.4 0-.5.2-.7.2H2.7v-.2-.5-.4-.4c.7 0 .7-.2.9-.5zm2.1 1.4z"/></svg>