<svg id="icon_web" viewBox="0 0 16 16" xmlns="http://www.w3.org/2000/svg"><path fill-rule="evenodd" clip-rule="evenodd" d="M8 1a7 7 0 110 14A7 7 0 018 1zm.7 12.5a5.6 5.6 0 01-1.4 0l-.5-1a10 10 0 01-.7-2.5 24.3 24.3 0 013.8.1 10 10 0 01-.7 2.5l-.5.9zM10 9a24.7 24.7 0 00-4 0 15.3 15.3 0 010-2.2 25 25 0 004 0 15.3 15.3 0 010 2.2zm.8 1.1c-.1 1.1-.4 2.1-.7 2.9a5.5 5.5 0 002.7-2.5l-2-.4zm2.4-.5L11 9.2a16.2 16.2 0 000-2.4c.8 0 1.6-.2 2.3-.4a5.5 5.5 0 010 3.3zM5 9.1a16.3 16.3 0 010-2.3c-.8 0-1.6-.2-2.3-.4a5.5 5.5 0 000 3.1A18 18 0 015 9.1zm-2 1.4A5.5 5.5 0 006 13c-.4-.8-.7-1.8-.9-3l-2 .4zm3.8-7a10 10 0 00-.7 2.4A24.1 24.1 0 0010 6a10 10 0 00-.7-2.5l-.5-.9a5.6 5.6 0 00-1.4 0l-.5 1zm4 2.3c.8 0 1.5-.2 2-.3-.5-1.2-1.5-2.1-2.7-2.6.3.8.6 1.8.8 3zm-7.7-.3c.6.1 1.3.3 2 .3L6 3a5.5 5.5 0 00-2.8 2.6z"/></svg>