<svg fill="none" xmlns="http://www.w3.org/2000/svg" viewBox="0 0 68 16"><path d="M7.83 1.63A.5.5 0 0 0 7.35 1h-4.6C1.78 1 1 1.78 1 2.75v.75c0 .28.22.5.5.5h5.31a.5.5 0 0 0 .49-.37l.53-2ZM1.5 6a.5.5 0 0 0-.5.5v2c0 .28.22.5.5.5h3.97a.5.5 0 0 0 .49-.37l.53-2A.5.5 0 0 0 6.01 6H1.5Zm0 5a.5.5 0 0 0-.5.5v1.75c0 .97.78 1.75 1.75 1.75h1.12a.5.5 0 0 0 .48-.37l.8-3a.5.5 0 0 0-.48-.63H1.5Zm5.57 4a.5.5 0 0 1-.48-.63l3.49-13a.5.5 0 0 1 .48-.37h1.98a.5.5 0 0 1 .49.63l-3.49 13a.5.5 0 0 1-.48.37H7.07Zm4.72-.63a.5.5 0 0 0 .48.63h.98c.97 0 1.75-.78 1.75-1.75V4.5c0-.47-.43-.53-.55-.07l-2.66 9.94ZM24.14 6.2c-.04-.34-.2-.6-.46-.8a1.77 1.77 0 0 0-1.05-.28 2 2 0 0 0-.78.13c-.21.1-.38.22-.5.38a.9.9 0 0 0-.06.96c.08.13.19.23.32.32a4.74 4.74 0 0 0 .93.36l.75.18c.3.07.6.16.87.28.28.12.53.28.75.46.23.18.4.4.54.66.13.26.2.56.2.9a2.17 2.17 0 0 1-1.4 2.07c-.46.2-1 .3-1.64.3-.63 0-1.17-.1-1.63-.29-.45-.2-.8-.47-1.07-.84a2.5 2.5 0 0 1-.41-1.35h1.43c.02.28.1.5.25.7.15.18.35.31.6.4.24.1.51.14.81.14.32 0 .6-.04.83-.14.24-.1.43-.23.56-.4.14-.17.2-.37.21-.6 0-.2-.06-.38-.18-.51a1.34 1.34 0 0 0-.5-.35c-.22-.1-.47-.17-.76-.25l-.9-.23a3.66 3.66 0 0 1-1.57-.77c-.38-.35-.57-.8-.57-1.38 0-.47.13-.88.38-1.24.26-.35.61-.63 1.05-.82.45-.2.95-.3 1.5-.3.58 0 1.07.1 1.5.3.43.2.77.46 1.01.81.25.35.37.75.38 1.2h-1.4Zm2.73 5.8V6h1.41v6h-1.41Zm.71-6.85a.83.83 0 0 1-.58-.22.72.72 0 0 1-.24-.55c0-.21.08-.4.24-.54a.82.82 0 0 1 .58-.23.8.8 0 0 1 .58.23.74.74 0 0 1 0 1.09.82.82 0 0 1-.58.22Zm4.38 6.96a2.27 2.27 0 0 1-2.14-1.42A3.94 3.94 0 0 1 29.49 9c0-.67.11-1.23.33-1.69.22-.46.52-.8.9-1.04a2.3 2.3 0 0 1 2.12-.18 2.18 2.18 0 0 1 .84.89h.06V4h1.42v8h-1.39v-.95h-.09c-.07.15-.17.3-.31.47a1.74 1.74 0 0 1-1.4.59Zm.4-1.16c.3 0 .55-.09.77-.25.2-.16.37-.39.48-.68a3.16 3.16 0 0 0 0-2.03 1.47 1.47 0 0 0-.48-.67c-.2-.16-.47-.24-.77-.24-.32 0-.58.08-.79.25a1.5 1.5 0 0 0-.48.68 3.04 3.04 0 0 0 0 1.99c.11.3.27.53.48.7.22.16.48.25.79.25Zm6.96 1.17a3.1 3.1 0 0 1-1.56-.38c-.43-.25-.76-.6-1-1.07a3.6 3.6 0 0 1-.35-1.63c0-.62.12-1.16.35-1.63a2.66 2.66 0 0 1 2.49-1.49c.37 0 .72.06 1.05.18a2.45 2.45 0 0 1 1.47 1.49c.15.38.22.84.22 1.36v.44h-4.92v-.96h3.57c0-.27-.07-.5-.18-.72a1.28 1.28 0 0 0-.48-.5c-.2-.13-.44-.19-.71-.19-.3 0-.54.07-.76.21a1.57 1.57 0 0 0-.7 1.29v.83c0 .35.07.65.2.9.12.25.3.44.53.57.23.13.5.2.8.2.2 0 .4-.03.56-.09.17-.06.31-.15.44-.26.12-.12.21-.26.27-.43l1.32.15c-.08.35-.24.65-.47.91a2.3 2.3 0 0 1-.9.6 3.2 3.2 0 0 1-1.24.22Zm3.93-.12V4h1.41v3h.06c.08-.15.18-.3.31-.47.13-.17.31-.31.54-.43.23-.12.52-.18.87-.18a2.29 2.29 0 0 1 2.14 1.4c.22.46.33 1.02.33 1.69 0 .66-.1 1.22-.32 1.68a2.27 2.27 0 0 1-2.15 1.42 1.78 1.78 0 0 1-1.4-.59 2.67 2.67 0 0 1-.32-.47h-.08V12h-1.39Zm1.39-3c0 .39.05.73.16 1.02.11.3.27.52.48.68.21.16.47.25.77.25.3 0 .57-.09.78-.25.21-.17.37-.4.48-.7a3.08 3.08 0 0 0 0-2c-.1-.28-.26-.5-.47-.67a1.25 1.25 0 0 0-.8-.25c-.3 0-.55.08-.76.24-.21.16-.37.38-.48.67-.11.28-.16.62-.16 1.01Zm8.13 3.12a3.1 3.1 0 0 1-1.56-.38c-.43-.25-.77-.6-1-1.07a3.6 3.6 0 0 1-.35-1.63c0-.62.12-1.16.35-1.63a2.66 2.66 0 0 1 2.49-1.49c.37 0 .72.06 1.05.18a2.45 2.45 0 0 1 1.47 1.49c.15.38.22.84.22 1.36v.44h-4.92v-.96h3.56c0-.27-.06-.5-.17-.72a1.28 1.28 0 0 0-.48-.5c-.2-.13-.44-.19-.71-.19a1.45 1.45 0 0 0-1.28.76c-.12.23-.18.47-.18.74v.83c0 .35.06.65.2.9.12.25.3.44.53.57.23.13.5.2.8.2.2 0 .4-.03.56-.09.17-.06.31-.15.43-.26.13-.12.22-.26.28-.43l1.32.15c-.08.35-.24.65-.47.91a2.3 2.3 0 0 1-.9.6 3.2 3.2 0 0 1-1.24.22Zm3.87-.12V6H58v1h.06a1.5 1.5 0 0 1 1.48-1.09 3.27 3.27 0 0 1 .5.04v1.3a2.62 2.62 0 0 0-.66-.08c-.25 0-.48.06-.68.17a1.23 1.23 0 0 0-.66 1.13V12h-1.41Zm5.42 2.25a2.86 2.86 0 0 1-.92-.15l.33-1.1c.2.06.39.09.55.09.16 0 .3-.06.42-.16.13-.1.23-.25.32-.48l.12-.32L60.7 6h1.5l1.39 4.53h.06L65.04 6h1.5l-2.4 6.73a2.7 2.7 0 0 1-.45.81c-.18.23-.4.4-.68.53-.26.12-.58.18-.95.18Z" fill="#888"/></svg>